<?xml version="1.0" encoding="UTF-8"?>
<!DOCTYPE svg PUBLIC "-//W3C//DTD SVG 1.1//EN" "http://www.w3.org/Graphics/SVG/1.1/DTD/svg11.dtd">
<!-- Creator: CorelDRAW -->
<svg xmlns="http://www.w3.org/2000/svg" xml:space="preserve" width="120mm" height="50mm" style="shape-rendering:geometricPrecision; text-rendering:geometricPrecision; image-rendering:optimizeQuality; fill-rule:evenodd; clip-rule:evenodd"
viewBox="0 0 120 50"
 xmlns:xlink="http://www.w3.org/1999/xlink">
 <defs>
  <style type="text/css">
   <![CDATA[
    .fil1 {fill:black}
    .fil0 {fill:red}
    .fil2 {fill:white}
   ]]>
  </style>
    <clipPath id="id0">
     <rect x="10.8497" y="12.2273" width="25.8411" height="25.5454"/>
    </clipPath>
 </defs>
 <g id="Layer_x0020_1">
  <metadata id="CorelCorpID_0Corel-Layer"/>
  <g id="_381922232">
   <polygon id="_381917096" class="fil0" points="48.2927,21.6163 51.6155,14.2971 109.15,14.4003 105.096,21.41 "/>
   <path id="_381918464" class="fil1" d="M52.2361 25.4457c0,0.3614 -0.1058,0.7734 -0.3181,1.2366 -0.0671,0.169 -0.1478,0.2906 -0.243,0.3643 -0.0949,0.0729 -0.1979,0.1099 -0.3099,0.1099 -0.1115,0 -0.2958,-0.0565 -0.5524,-0.1693 -0.123,-0.0563 -0.2065,-0.0846 -0.251,-0.0846 0.145,0.3499 0.2538,0.6801 0.3267,0.9903 0.0721,0.3106 0.1086,0.6127 0.1086,0.9062 0,0.7226 -0.2288,1.4793 -0.6867,2.2693 -0.3908,0.7002 -0.8567,1.2249 -1.3983,1.5754 -0.5411,0.3497 -1.1021,0.5247 -1.6828,0.5247 -0.3574,0 -0.7255,-0.0732 -1.1049,-0.2198 -0.5024,-0.1921 -0.9046,-0.4856 -1.2061,-0.8809 -0.3459,-0.4518 -0.5188,-0.9994 -0.5188,-1.6428 0,-0.2933 0.0557,-0.6771 0.1673,-1.1518 0.257,-0.9598 0.7315,-1.8798 1.4234,-2.7602 0.6922,-0.8809 1.3789,-1.4113 2.0599,-1.592 0.2452,-0.0677 0.4517,-0.1128 0.6196,-0.1357 0.5132,-0.0903 1.0326,-0.1352 1.557,-0.1352 0.4801,0 1.0047,0.0449 1.5742,0.1352 0.2902,0.068 0.4353,0.2882 0.4353,0.6604zm-3.4664 3.0823c0,-0.1807 -0.0308,-0.3469 -0.0921,-0.4995 -0.0615,-0.1523 -0.1144,-0.2283 -0.1588,-0.2283 -0.1342,0 -0.3293,0.1184 -0.5865,0.3557 -0.1673,0.1575 -0.3181,0.3611 -0.4517,0.6093 -0.2572,0.5533 -0.3908,0.8468 -0.4023,0.8809 -0.1558,0.3722 -0.2343,0.6432 -0.2343,0.813 0,0.1242 0.0392,0.1974 0.1172,0.2198l0.1171 0c0.1787,0 0.3937,-0.0932 0.6452,-0.2792 0.2508,-0.1864 0.4768,-0.4263 0.6781,-0.7197 0.1224,-0.1922 0.2145,-0.3924 0.276,-0.6013 0.0613,-0.2088 0.0921,-0.3924 0.0921,-0.5507zm10.7341 0.6101c-0.1678,0.406 -0.3157,0.9762 -0.4437,1.7105 -0.1286,0.7336 -0.1929,1.3544 -0.1929,1.8624 -0.0336,0.2146 -0.1001,0.3672 -0.2009,0.4575 -0.1005,0.0904 -0.2177,0.1357 -0.3515,0.1357 -0.0222,0 -0.0643,-0.0058 -0.1258,-0.0172 -0.0613,-0.011 -0.145,-0.0391 -0.2508,-0.0846 -0.1063,-0.0449 -0.3073,-0.1018 -0.6031,-0.1691 -0.2959,-0.0679 -0.4886,-0.1358 -0.5773,-0.2038 -0.0785,-0.0224 -0.1678,-0.0954 -0.268,-0.2198 -0.1008,-0.1242 -0.1843,-0.1864 -0.2516,-0.1864 -0.0671,0 -0.1785,0.0679 -0.3349,0.2031 -0.0667,0.0565 -0.2095,0.1359 -0.4269,0.2372 -0.2177,0.1018 -0.4158,0.1523 -0.5943,0.1523 -0.4439,0.0115 -0.8819,-0.2651 -1.312,-0.8296 -0.388,-0.4966 -0.5803,-0.9257 -0.5803,-1.2871l0 -0.3896c0,-0.7002 0.1617,-1.4171 0.4854,-2.1506 0.2906,-0.6549 0.648,-1.1911 1.0718,-1.6088 0.3015,-0.3952 0.7145,-0.7681 1.2391,-1.1181 0.257,-0.169 0.653,-0.3895 1.1888,-0.6604l0.3688 -0.0846c0.1336,0 0.2452,0.068 0.3345,0.2031 0.0449,0.0794 0.095,0.1583 0.1509,0.237 0.0891,0.1922 0.1728,0.2882 0.2513,0.2882 0.0337,-0.0338 0.0557,-0.057 0.0671,-0.0677 0.0665,-0.0679 0.1058,-0.1187 0.1172,-0.1526 0.0779,-0.1466 0.1559,-0.2934 0.2344,-0.44 0.123,-0.1245 0.2788,-0.1865 0.4689,-0.1865l0.1673 0c0.1672,0 0.4715,0.1633 0.9124,0.4907 0.4408,0.328 0.6782,0.5933 0.7117,0.7965 0,0.0224 -0.1843,0.4401 -0.5525,1.253 -0.2678,0.587 -0.5022,1.1968 -0.7031,1.8293zm-2.2272 -1.2705l-0.0166 -0.0674c-0.1456,0 -0.3964,0.1916 -0.7538,0.5755 -0.2007,0.2145 -0.3293,0.4176 -0.3852,0.6098 -0.3122,0.6322 -0.4687,1.0328 -0.4687,1.2025 0,0.1013 0.0445,0.1526 0.1338,0.1526 0.1785,0.0109 0.385,-0.0904 0.6194,-0.3049 0.3016,-0.2711 0.4803,-0.5984 0.536,-0.9823 0.0228,-0.1359 0.0835,-0.3533 0.1843,-0.6525 0.1007,-0.2992 0.1508,-0.477 0.1508,-0.5333zm12.4585 -0.8947c-0.0671,0.3302 -0.3771,0.7681 -0.9296,1.3153 -0.5524,0.5507 -1.0576,0.9204 -1.5155,1.1121l-0.0166 0.2203c0,0.3414 0.1087,0.7591 0.3267,1.2561 0.2171,0.4995 0.4492,1.0075 0.6944,1.527 0,0.1128 -0.1114,0.2003 -0.3345,0.2568 -0.8595,0.2145 -1.4404,0.4067 -1.7419,0.576l-0.0667 0c-0.1005,0 -0.2399,-0.1412 -0.4186,-0.4237 -0.1787,-0.2825 -0.3181,-0.6322 -0.4187,-1.0499 -0.0558,-0.2596 -0.1115,-0.6237 -0.1672,-1.0921 -0.0563,-0.469 -0.1064,-0.7088 -0.1508,-0.7198 -0.0449,0 -0.2294,0.5248 -0.5531,1.5747 -0.1785,0.5984 -0.3958,1.022 -0.653,1.2704 -0.2229,0.1807 -0.4182,0.2711 -0.5859,0.2711 -0.1673,0 -0.4188,-0.1807 -0.7534,-0.5419 -0.2235,-0.2372 -0.4214,-0.4041 -0.5945,-0.5002 -0.1728,-0.0953 -0.2594,-0.2622 -0.2594,-0.4994 0,-0.3953 0.2009,-1.0275 0.6026,-1.897 0.2792,-0.5984 0.5636,-1.1968 0.8539,-1.7952 0.1678,-0.3383 0.4409,-0.9538 0.8208,-1.8457 0.2452,-0.5869 0.4353,-0.9424 0.5689,-1.0668 0.0228,-0.0225 0.1707,-0.0706 0.4439,-0.1438 0.2736,-0.0737 0.4773,-0.1104 0.6115,-0.1104 0.1228,0 0.2122,0.0172 0.268,0.051 0.1114,0.0904 0.2594,0.2654 0.4437,0.5248 0.1837,0.2596 0.2758,0.4403 0.2758,0.5421 -0.0999,0.2594 -0.2093,0.5898 -0.3265,0.9908 -0.1171,0.4005 -0.1756,0.6685 -0.1756,0.8044l0.0504 0.1185 0.0838 -0.0339c0.558,-0.3838 1.0155,-0.8413 1.3727,-1.3718 0.5809,-0.8577 0.9046,-1.2928 0.9717,-1.3038l0.1172 0c0.3573,0 0.6474,0.2313 0.8705,0.694 0.1899,0.3867 0.285,0.7653 0.285,1.1374l0 0.1526zm9.7117 -0.2372c-0.0108,0.1244 -0.2451,0.6973 -0.703,1.7165 -0.2795,0.6208 -0.4968,1.1822 -0.6532,1.6795l-0.0501 0.3216c0,0.1352 0.0865,0.274 0.2594,0.4149 0.173,0.1437 0.2816,0.3216 0.3267,0.5361l0 0.1018c0,0.2148 -0.1286,0.4909 -0.3852,0.8328 -0.2566,0.3387 -0.4631,0.508 -0.6196,0.508 -0.2457,-0.0224 -0.4631,-0.1099 -0.6532,-0.2596 -0.1564,-0.1612 -0.307,-0.325 -0.4521,-0.4856 -0.3795,0.271 -0.7197,0.4627 -1.0213,0.5759 -0.3015,0.1128 -0.5807,0.1693 -0.8373,0.1693 -0.2566,0 -0.4854,-0.0508 -0.6867,-0.1526 -0.1672,-0.1127 -0.3295,-0.2312 -0.4853,-0.3554 -0.1008,0 -0.2207,0.3216 -0.3602,0.9653 -0.1394,0.6434 -0.2093,1.2814 -0.2093,1.9136l0.0501 0.7114c-0.0108,0.1018 -0.1787,0.2427 -0.5024,0.4234 -0.3237,0.1807 -0.558,0.2711 -0.7031,0.2711 -0.0893,-0.068 -0.3573,-0.2038 -0.804,-0.407 -0.3457,-0.1575 -0.5188,-0.2992 -0.5188,-0.4234 -0.0449,-0.0903 -0.0671,-0.2255 -0.0671,-0.4062 0,-0.8578 0.3123,-2.4896 0.9376,-4.8942 0.6252,-2.405 1.2061,-4.1379 1.7413,-5.1996 0.1456,-0.2479 0.263,-0.4176 0.3522,-0.508 0.1338,-0.1352 0.2902,-0.2031 0.4689,-0.2031l0.1672 0c0.2901,0.0679 0.5974,0.2312 0.9211,0.4913 0.3681,0.305 0.5524,0.5927 0.5524,0.8638 0,0.1127 -0.2231,0.6432 -0.6696,1.592 -0.4467,0.9482 -0.6697,1.5523 -0.6697,1.8117l-0.017 0.0507c0,0.2601 0.0643,0.4828 0.1929,0.6692 0.128,0.1865 0.2816,0.2797 0.4601,0.2797 0.2344,0 0.4297,-0.1469 0.5861,-0.4408 0.257,-0.5081 0.5194,-1.0726 0.7872,-1.6934 0.3125,-0.7674 0.6248,-1.5356 0.9377,-2.3032 0.1338,-0.4063 0.2121,-0.6265 0.2343,-0.6606 0.1008,-0.1922 0.2232,-0.2875 0.3688,-0.2875l0.1673 0.0338c0.1672,0.0789 0.3351,0.1974 0.5023,0.3557 0.4351,0.4091 0.7253,0.6575 0.8704,0.7479 0.1227,0 0.1842,0.1692 0.1842,0.508l0 0.1352zm8.4067 -5.0327c0,0.1018 -0.1676,0.3273 -0.5027,0.6778 -0.3345,0.3497 -0.5803,0.5752 -0.7368,0.6773 -0.033,0.0453 -0.1422,0.138 -0.3267,0.2796 -0.1836,0.1409 -0.3265,0.2399 -0.4266,0.2961 -0.1673,0.1354 -0.2901,0.2315 -0.3686,0.2878 -0.1672,0.1127 -0.301,0.1697 -0.4016,0.1697l-0.1172 -0.0512c-0.1344,-0.1011 -0.2009,-0.237 -0.2009,-0.4063l0.0337 -0.2029c0.022,-0.0903 0.0863,-0.2963 0.1923,-0.6186 0.1057,-0.3216 0.2035,-0.6122 0.2928,-0.8723 0.1787,-0.4511 0.2903,-0.7279 0.3351,-0.8297 0.1338,-0.3159 0.2402,-0.4908 0.3181,-0.5247 0.145,0 0.3043,0.0281 0.4773,0.0846 0.1729,0.0563 0.3766,0.1691 0.611,0.3388 0.1901,0.1013 0.3744,0.2315 0.553,0.3896 0.1787,0.1575 0.2678,0.2596 0.2678,0.3044zm-1.189 7.4351c-0.1676,0.406 -0.3157,0.9762 -0.4437,1.7105 -0.1286,0.7336 -0.1929,1.3544 -0.1929,1.8624 -0.0334,0.2146 -0.1001,0.3672 -0.2007,0.4575 -0.1007,0.0904 -0.2179,0.1357 -0.3515,0.1357 -0.0222,0 -0.0643,-0.0058 -0.1258,-0.0172 -0.0615,-0.011 -0.145,-0.0391 -0.251,-0.0846 -0.1063,-0.0449 -0.3071,-0.1018 -0.6029,-0.1691 -0.2959,-0.0679 -0.4888,-0.1358 -0.5775,-0.2038 -0.0785,-0.0224 -0.1679,-0.0954 -0.268,-0.2198 -0.1006,-0.1242 -0.1843,-0.1864 -0.2514,-0.1864 -0.0671,0 -0.1787,0.0679 -0.3351,0.2031 -0.0665,0.0565 -0.2093,0.1359 -0.4267,0.2372 -0.2179,0.1018 -0.4158,0.1523 -0.5945,0.1523 -0.4244,0.0115 -0.8539,-0.2651 -1.2898,-0.8296 -0.3902,-0.508 -0.5859,-0.9372 -0.5859,-1.2871l-0.0164 -0.3896c0,-0.7002 0.1615,-1.4171 0.4852,-2.1506 0.2908,-0.6549 0.648,-1.1911 1.0718,-1.6088 0.3015,-0.3952 0.7145,-0.7681 1.2391,-1.1181 0.2572,-0.169 0.653,-0.3895 1.189,-0.6604l0.3686 -0.0846c0.1338,0 0.2452,0.068 0.3345,0.2031 0.0451,0.0794 0.0952,0.1583 0.1508,0.237 0.0894,0.1922 0.1729,0.2882 0.2514,0.2882 0.0337,-0.0338 0.0559,-0.057 0.0673,-0.0677 0.0665,-0.0679 0.1058,-0.1187 0.1172,-0.1526 0.0779,-0.1466 0.1559,-0.2934 0.2344,-0.44 0.1228,-0.1245 0.2786,-0.1865 0.4687,-0.1865l0.1673 0c0.1672,0 0.4717,0.1633 0.9126,0.4907 0.4408,0.328 0.678,0.5933 0.7116,0.7965 0,0.0224 -0.1842,0.4401 -0.5524,1.253 -0.268,0.587 -0.5024,1.1968 -0.7033,1.8293zm-2.2272 -1.2705l-0.0164 -0.0674c-0.1456,0 -0.3966,0.1916 -0.7538,0.5755 -0.2009,0.2145 -0.3295,0.4176 -0.3852,0.6098 -0.3123,0.6322 -0.4687,1.0328 -0.4687,1.2025 0,0.1013 0.0443,0.1526 0.1336,0.1526 0.1787,0.0109 0.3852,-0.0904 0.6196,-0.3049 0.3014,-0.2711 0.4801,-0.5984 0.5358,-0.9823 0.0228,-0.1359 0.0837,-0.3533 0.1845,-0.6525 0.1005,-0.2992 0.1506,-0.477 0.1506,-0.5333zm12.4585 -0.8947c-0.0671,0.3302 -0.3772,0.7681 -0.9296,1.3153 -0.5524,0.5507 -1.0576,0.9204 -1.5155,1.1121l-0.0165 0.2203c0,0.3414 0.1086,0.7591 0.3266,1.2561 0.2173,0.4995 0.4494,1.0075 0.6946,1.527 0,0.1128 -0.1116,0.2003 -0.3345,0.2568 -0.8597,0.2145 -1.4406,0.4067 -1.7421,0.576l-0.0665 0c-0.1007,0 -0.2401,-0.1412 -0.4186,-0.4237 -0.1787,-0.2825 -0.3181,-0.6322 -0.4189,-1.0499 -0.0556,-0.2596 -0.1115,-0.6237 -0.1672,-1.0921 -0.0563,-0.469 -0.1064,-0.7088 -0.1508,-0.7198 -0.0449,0 -0.2292,0.5248 -0.5529,1.5747 -0.1787,0.5984 -0.396,1.022 -0.6532,1.2704 -0.2229,0.1807 -0.418,0.2711 -0.5859,0.2711 -0.1673,0 -0.4186,-0.1807 -0.7532,-0.5419 -0.2237,-0.2372 -0.4216,-0.4041 -0.5945,-0.5002 -0.173,-0.0953 -0.2596,-0.2622 -0.2596,-0.4994 0,-0.3953 0.2009,-1.0275 0.6026,-1.897 0.2794,-0.5984 0.5638,-1.1968 0.8539,-1.7952 0.1678,-0.3383 0.4408,-0.9538 0.821,-1.8457 0.2452,-0.5869 0.4351,-0.9424 0.5689,-1.0668 0.0226,-0.0225 0.1707,-0.0706 0.4437,-0.1438 0.2736,-0.0737 0.4773,-0.1104 0.6115,-0.1104 0.123,0 0.2123,0.0172 0.268,0.051 0.1116,0.0904 0.2594,0.2654 0.4437,0.5248 0.1839,0.2596 0.276,0.4403 0.276,0.5421 -0.1001,0.2594 -0.2093,0.5898 -0.3265,0.9908 -0.1171,0.4005 -0.1758,0.6685 -0.1758,0.8044l0.0506 0.1185 0.0836 -0.0339c0.5582,-0.3838 1.0155,-0.8413 1.3729,-1.3718 0.5807,-0.8577 0.9044,-1.2928 0.9717,-1.3038l0.1172 0c0.3571,0 0.6473,0.2313 0.8703,0.694 0.1901,0.3867 0.285,0.7653 0.285,1.1374l0 0.1526zm7.9368 0.3192c-0.0893,0.7336 -0.2736,1.5575 -0.5522,2.4725 -0.1116,0.3612 -0.3632,1.1064 -0.754,2.2353 -0.3009,0.8585 -0.4909,1.5017 -0.5689,1.931 -0.0785,0.3383 -0.1171,0.6208 -0.1171,0.8464 0,0.1466 0.0108,0.3387 0.033,0.5759 0.0226,0.237 0.0335,0.3836 0.0335,0.4401 0,0.057 -0.0051,0.0961 -0.0165,0.1185 -0.0114,0.0231 -0.0448,0.0484 -0.1007,0.0765 -0.0557,0.0282 -0.2174,0.1381 -0.4852,0.3302 -0.1901,0.1354 -0.3517,0.2372 -0.4859,0.3052l-0.2344 0c-0.1786,0 -0.388,-0.0651 -0.6281,-0.1953 -0.24,-0.1294 -0.3708,-0.1943 -0.393,-0.1943 -0.1679,0 -0.2987,-0.1049 -0.3938,-0.3137 -0.095,-0.2088 -0.1423,-0.4596 -0.1423,-0.7536 0,-0.2482 0.0281,-0.5023 0.0838,-0.7619 0.1336,-0.6778 0.3515,-1.4619 0.653,-2.3538 0.268,-0.7457 0.5496,-1.5219 0.8455,-2.3292 0.2958,-0.8072 0.5051,-1.4814 0.6279,-2.0235l0.0167 -0.1352c0,-0.1018 -0.0387,-0.1526 -0.1172,-0.1526 -0.0667,0 -0.1673,0.0334 -0.3011,0.1013 -0.257,0.1128 -0.4523,0.3505 -0.5865,0.7112 -0.1116,0.4177 -0.1895,0.6944 -0.2343,0.8303 -0.1116,0.237 -0.226,0.5391 -0.3432,0.9057 -0.1172,0.3669 -0.2207,0.7198 -0.3101,1.0585 -0.3122,1.1406 -0.5915,1.7106 -0.8366,1.7106 -0.2909,0 -0.6953,-0.1776 -1.2141,-0.5333 -0.5194,-0.3555 -0.779,-0.6237 -0.779,-0.8044 0.0114,-0.1356 0.0309,-0.2768 0.0587,-0.4234 0.0278,-0.1469 0.0529,-0.232 0.0751,-0.2544 0.5138,-1.2754 0.8824,-2.2128 1.1053,-2.8112 0.4022,-1.0609 0.6925,-2.072 0.8711,-3.0311 0.0109,-0.1242 0.1228,-0.1864 0.3346,-0.1864 0.2235,0 0.5358,0.0732 0.938,0.2198 0.1338,0.0455 0.3181,0.1242 0.5524,0.237 0.0115,0.0569 0.0251,0.1273 0.0421,0.2117 0.0164,0.0853 0.0695,0.1273 0.1587,0.1273 0.045,-0.011 0.0837,-0.0196 0.1173,-0.0253 0.0335,-0.006 0.095,-0.0369 0.1843,-0.0932 0.0114,-0.0117 0.2065,-0.1302 0.5859,-0.3557 0.2572,-0.1583 0.4687,-0.237 0.6366,-0.237l0.0667 0c0.3237,0 0.6672,0.2594 1.0302,0.7791 0.3623,0.5195 0.5438,1.0385 0.5438,1.558l0 0.1864z"/>
   <path id="_381915320" class="fil1" d="M49.556 16.5941c-0.0201,0.2431 -0.1629,0.5709 -0.4283,0.9857 -0.2654,0.4147 -0.4695,0.6367 -0.6121,0.667 -0.1429,0.0304 -0.6536,0.0556 -1.5312,0.0755 -0.8777,0.021 -1.3166,0.0817 -1.3166,0.1823 0.1015,0.3644 0.1522,0.7184 0.1522,1.0618 0,0.2629 -0.02,0.4704 -0.0613,0.6212 -0.04,0.1518 -0.0813,0.2879 -0.1216,0.4095 -0.3479,0.4859 -0.8575,1.5573 -1.5311,3.2151 -0.5108,1.2736 -1.1336,2.9419 -1.8685,5.0041 -0.6123,1.7188 -1.1325,3.2246 -1.5618,4.5192 -0.0815,0.1812 -0.275,0.2722 -0.5817,0.2722 -0.388,0 -0.8617,-0.1307 -1.4234,-0.3936 -0.5614,-0.2629 -0.9652,-0.5458 -1.2096,-0.8494 -0.4082,-0.4043 -0.6736,-0.687 -0.7962,-0.8495 -0.3267,-0.424 -0.4896,-0.8085 -0.4896,-1.152l0.0307 -0.2126c0.1015,-0.5258 0.4482,-1.4966 1.0406,-2.9116 0.2451,-0.5654 0.8775,-1.9814 1.8991,-4.2458 0.8977,-1.9814 1.4899,-3.3262 1.7753,-4.0331 -0.02,-0.0607 -0.0413,-0.1016 -0.0613,-0.1214 -0.0813,-0.1016 -0.1935,-0.152 -0.3363,-0.152 -0.1438,0 -0.3574,0.0712 -0.644,0.2127 -0.2854,0.1415 -0.6015,0.2115 -0.9485,0.2115 -0.1225,0 -0.2093,-0.0147 -0.2602,-0.0451 -0.0516,-0.0303 -0.0771,-0.0555 -0.0771,-0.0754 -0.2654,0 -0.4695,-0.6378 -0.6121,-1.9113 -0.0615,-0.5258 -0.0922,-0.9906 -0.0922,-1.395l0 -0.2127 -0.0306 -0.1812c0,-0.3644 0.4601,-0.6273 1.3779,-0.7884 0.2252,-0.0408 0.664,-0.1018 1.3176,-0.1823 0.8776,-0.0607 1.5712,-0.1016 2.082,-0.1214 1.5512,-0.0808 2.7557,-0.1217 3.6134,-0.1217 0.3054,0 0.6015,0.0054 0.8881,0.0159 0.2855,0.0094 0.4589,0.0448 0.5202,0.1058 0.3057,0.1821 0.6737,0.5257 1.1019,1.0314 0.5308,0.6066 0.7963,1.0609 0.7963,1.3646z"/>
   <path id="_381914960" class="fil2" d="M57.2223 15.4898l-0.1277 0.7349 -1.35 0c-0.1629,0 -0.3188,0.0718 -0.4676,0.2154 -0.1879,0.1816 -0.31,0.4394 -0.3668,0.773l2.0304 0 -0.1328 0.7413 -2.0517 0c-0.0108,0.073 -0.0179,0.1225 -0.0213,0.1511 -0.0034,0.0272 -0.0054,0.0718 -0.0054,0.1309 0,0.2356 0.0604,0.4213 0.1808,0.5586 0.0992,0.1152 0.2107,0.1731 0.3348,0.1731l1.3607 0 -0.1329 0.735 -1.3658 0c-0.3864,0 -0.6796,-0.111 -0.8798,-0.3327 -0.2001,-0.2226 -0.3001,-0.5661 -0.3001,-1.0314 0,-0.2368 0.0264,-0.5082 0.0795,-0.8123 0.1204,-0.6725 0.3348,-1.1804 0.6433,-1.5227 0.3083,-0.3432 0.7103,-0.5142 1.2063,-0.5142l1.3661 0zm5.4264 1.1406l-1.3659 1.514 0.8131 1.5587 -0.8823 0 -0.7441 -1.4827 -0.2657 1.4827 -0.7015 0 0.5473 -3.0727 0.691 0 -0.2595 1.4603 1.2852 -1.4603 0.8824 0zm4.8259 0l-0.1116 0.6397 -0.9408 0 -0.2391 1.337c-0.0141,0.0718 -0.0212,0.1435 -0.0212,0.2153 0,0.0929 0.0204,0.1593 0.0612,0.1997 0.0407,0.0401 0.114,0.06 0.2204,0.06l0.3029 0 -0.1116 0.621 -0.5209 0c-0.2337,0 -0.4039,-0.0549 -0.5099,-0.1647 -0.1065,-0.1098 -0.1598,-0.2787 -0.1598,-0.507 0,-0.0718 0.0017,-0.1279 0.0054,-0.1677 0.0037,-0.0401 0.0142,-0.1046 0.032,-0.1933l0.2499 -1.4193 -0.6805 0 0.1116 -0.6207 2.312 0zm5.1235 0l-0.3455 1.9513c-0.0602,0.3252 -0.1789,0.5873 -0.356,0.7857 -0.2021,0.2238 -0.4537,0.3357 -0.7549,0.3357l-0.6428 0c-0.2339,0 -0.4031,-0.0621 -0.5076,-0.1867 -0.1047,-0.1249 -0.1569,-0.301 -0.1569,-0.5293 0,-0.076 0.0017,-0.1351 0.0053,-0.1774 0.0037,-0.0422 0.014,-0.1076 0.0319,-0.1966l0.3454 -1.9827 0.6964 0 -0.3616 1.964c0,0.0507 0,0.0866 0,0.1077 0,0.0886 0.0204,0.1616 0.0613,0.2186 0.0406,0.057 0.0931,0.0854 0.1567,0.0854l0.3986 0c0.0849,0 0.1666,-0.0422 0.2444,-0.1267 0.0781,-0.0844 0.1277,-0.1879 0.149,-0.3106l0.3455 -1.9384 0.6908 0zm5.384 0l-0.5473 3.0727 -0.7069 0 0.4304 -2.401 -0.9726 0 -0.4304 2.401 -0.6857 0 0.5474 -3.0727 2.3651 0zm5.6285 -1.128l-0.4837 0.6907 -0.3986 0 0.3137 -0.6907 0.5686 0zm1.0045 2.7117c-0.0813,0.4539 -0.2374,0.808 -0.4676,1.0601 -0.2658,0.2904 -0.622,0.4352 -1.0683,0.4352 -0.1914,0 -0.3313,-0.0338 -0.4199,-0.1013 -0.1062,-0.0802 -0.1754,-0.228 -0.2075,-0.4437 -0.0991,0.1903 -0.2175,0.3285 -0.356,0.415 -0.138,0.0866 -0.3012,0.13 -0.4889,0.13 -0.3543,0 -0.6226,-0.0962 -0.8051,-0.2883 -0.1826,-0.1921 -0.2739,-0.4678 -0.2739,-0.8267 0,-0.1309 0.0144,-0.2811 0.0427,-0.45 0.085,-0.4732 0.255,-0.8363 0.51,-1.0897 0.2872,-0.2829 0.6787,-0.4243 1.1747,-0.4243l-0.1204 0.6578c-0.201,0 -0.3738,0.076 -0.5192,0.228 -0.1442,0.152 -0.2427,0.3716 -0.2958,0.6599 -0.0176,0.1055 -0.0264,0.1966 -0.0264,0.2726 0,0.1774 0.0344,0.3218 0.1036,0.4337 0.069,0.1119 0.1638,0.168 0.2842,0.168 0.1062,0 0.2055,-0.0316 0.2978,-0.095 0.1062,-0.076 0.17,-0.171 0.1911,-0.285l0.2339 -1.3306 0.7069 0 -0.2283 1.2989c-0.0037,0.0169 -0.0056,0.038 -0.0056,0.0634 0,0.0929 0.04,0.1689 0.1195,0.228 0.08,0.0591 0.1623,0.0887 0.2473,0.0887 0.1984,0 0.3616,-0.1153 0.4891,-0.3463 0.092,-0.1668 0.1629,-0.3854 0.2124,-0.6538 0.0107,-0.0589 0.0161,-0.1128 0.0161,-0.1635 0,-0.168 -0.0505,-0.2989 -0.1516,-0.393 -0.101,-0.0938 -0.2365,-0.1414 -0.4065,-0.1414l0.1275 -0.6904c0.3508,0 0.6217,0.0866 0.8133,0.2585 0.2124,0.1891 0.3188,0.4753 0.3188,0.8586 0,0.1381 -0.0159,0.2944 -0.0479,0.4666zm6.2717 -1.5837l-0.1223 0.6904 -0.7495 0c0.1667,0.1097 0.2499,0.3082 0.2499,0.5956 0,0.0422 -0.0026,0.0887 -0.008,0.1394 -0.0054,0.0506 -0.015,0.1224 -0.0292,0.2153 -0.071,0.3888 -0.2445,0.7181 -0.521,0.9886 -0.3012,0.2914 -0.6535,0.437 -1.0575,0.437 -0.3719,0 -0.6538,-0.1076 -0.8451,-0.3233 -0.1772,-0.1984 -0.2658,-0.4686 -0.2658,-0.8107 0,-0.0802 0.0018,-0.1435 0.0054,-0.19 0.0034,-0.0467 0.014,-0.1164 0.0318,-0.209 0.0781,-0.4479 0.241,-0.8068 0.4889,-1.0773 0.2799,-0.304 0.6272,-0.456 1.0419,-0.456l1.7805 0zm-1.334 1.5584c0.0211,-0.1267 0.0316,-0.2407 0.0316,-0.3421 0,-0.4056 -0.1715,-0.6083 -0.5155,-0.6083 -0.1948,0 -0.3632,0.0772 -0.5048,0.2313 -0.1417,0.1542 -0.2408,0.3855 -0.2976,0.694 -0.0213,0.1225 -0.032,0.2323 -0.032,0.3294 0,0.3969 0.1791,0.5953 0.5368,0.5953 0.2126,0 0.3898,-0.0929 0.5315,-0.2787 0.1169,-0.1562 0.2003,-0.3634 0.25,-0.6209zm6.3567 -1.5584l-0.1118 0.6144 -0.9673 0c-0.1453,0 -0.2844,0.0527 -0.4173,0.1583 -0.1328,0.1056 -0.2152,0.247 -0.2472,0.4246l1.5256 0 -0.117 0.6397 -1.4989 0c-0.0105,0.0594 -0.0159,0.1101 -0.0159,0.1523 0,0.1478 0.0426,0.2597 0.1275,0.3357 0.0709,0.0634 0.1666,0.095 0.2872,0.095l0.9991 0 -0.1168 0.6527 -1.0685 0c-0.3366,0 -0.5845,-0.1077 -0.7438,-0.323 -0.1385,-0.1861 -0.2075,-0.4521 -0.2075,-0.7984 0,-0.1393 0.0054,-0.2512 0.0159,-0.3359 0.0178,-0.0972 0.0303,-0.1689 0.0372,-0.2154 0.0707,-0.3969 0.2339,-0.7265 0.4891,-0.9883 0.2692,-0.2748 0.5846,-0.4117 0.946,-0.4117l1.0844 0zm3.7151 0l-0.5476 3.0727 -0.6856 0 0.5473 -3.0727 0.6859 0zm5.2774 0l-0.1168 0.6717 -0.9728 0c-0.184,0 -0.3507,0.0886 -0.4994,0.266 -0.1488,0.1773 -0.2428,0.3779 -0.2817,0.6017 -0.0213,0.1097 -0.032,0.2135 -0.032,0.3103 0,0.1861 0.0383,0.3309 0.1144,0.434 0.0761,0.1038 0.201,0.1556 0.3747,0.1556l0.946 0 -0.2552 1.438 -0.7067 0 0.1434 -0.8046 -0.3401 0c-0.3367,0 -0.5945,-0.0959 -0.7734,-0.2883 -0.1788,-0.1922 -0.2683,-0.4615 -0.2683,-0.8077 0,-0.1309 0.0123,-0.2621 0.0372,-0.393 0.0708,-0.3927 0.2303,-0.7474 0.4784,-1.0644 0.2728,-0.3462 0.5615,-0.5193 0.8662,-0.5193l1.2861 0z"/>
   <g style="clip-path:url(#id0)">
    <image id="_381921872" transform="matrix(1 0 0 1 -49.1503 12.7727)" x="60" y="-0.5454" width="25.841" height="25.5454" xlink:href="fakelos_Images\fakelos_ImgID1.png"/>
   </g>
  </g>
 </g>
</svg>
